<mxfile host="app.diagrams.net" modified="2024-01-20T15:45:50.698Z" agent="Mozilla/5.0 (Windows NT 10.0; Win64; x64; rv:121.0) Gecko/20100101 Firefox/121.0" etag="rP2ztt_Gj5l7DbMZNohl" version="22.1.18" type="github">
  <diagram name="Page-1" id="3l79WrPU8ovl3TwPG0WL">
    <mxGraphModel dx="1265" dy="746" grid="1" gridSize="10" guides="1" tooltips="1" connect="1" arrows="1" fold="1" page="1" pageScale="1" pageWidth="827" pageHeight="1169" math="0" shadow="0">
      <root>
        <mxCell id="0" />
        <mxCell id="1" parent="0" />
        <mxCell id="JrHW454MxP2I1iZ4IIzq-11" style="rounded=0;orthogonalLoop=1;jettySize=auto;html=1;" edge="1" parent="1" source="JrHW454MxP2I1iZ4IIzq-1">
          <mxGeometry relative="1" as="geometry">
            <mxPoint x="85" y="240" as="targetPoint" />
          </mxGeometry>
        </mxCell>
        <mxCell id="JrHW454MxP2I1iZ4IIzq-1" value="" style="ellipse;fillColor=strokeColor;html=1;" vertex="1" parent="1">
          <mxGeometry x="70" y="90" width="30" height="40" as="geometry" />
        </mxCell>
        <mxCell id="JrHW454MxP2I1iZ4IIzq-2" value="" style="ellipse;html=1;shape=endState;fillColor=strokeColor;" vertex="1" parent="1">
          <mxGeometry x="70" y="690" width="30" height="30" as="geometry" />
        </mxCell>
        <mxCell id="JrHW454MxP2I1iZ4IIzq-12" style="edgeStyle=orthogonalEdgeStyle;rounded=0;orthogonalLoop=1;jettySize=auto;html=1;" edge="1" parent="1" source="JrHW454MxP2I1iZ4IIzq-3" target="JrHW454MxP2I1iZ4IIzq-8">
          <mxGeometry relative="1" as="geometry" />
        </mxCell>
        <mxCell id="JrHW454MxP2I1iZ4IIzq-3" value="Lampe éteinte " style="html=1;align=center;verticalAlign=top;rounded=1;absoluteArcSize=1;arcSize=10;dashed=0;whiteSpace=wrap;" vertex="1" parent="1">
          <mxGeometry x="20" y="240" width="140" height="40" as="geometry" />
        </mxCell>
        <mxCell id="JrHW454MxP2I1iZ4IIzq-4" value="Brancher Lampe " style="html=1;align=center;verticalAlign=top;rounded=1;absoluteArcSize=1;arcSize=10;dashed=0;whiteSpace=wrap;" vertex="1" parent="1">
          <mxGeometry x="250" y="340" width="140" height="40" as="geometry" />
        </mxCell>
        <mxCell id="JrHW454MxP2I1iZ4IIzq-5" value="Remplacer ampoule " style="html=1;align=center;verticalAlign=top;rounded=1;absoluteArcSize=1;arcSize=10;dashed=0;whiteSpace=wrap;" vertex="1" parent="1">
          <mxGeometry x="260" y="480" width="140" height="40" as="geometry" />
        </mxCell>
        <mxCell id="JrHW454MxP2I1iZ4IIzq-7" value="Lampe fonctionne " style="html=1;align=center;verticalAlign=top;rounded=1;absoluteArcSize=1;arcSize=10;dashed=0;whiteSpace=wrap;" vertex="1" parent="1">
          <mxGeometry x="20" y="580" width="140" height="40" as="geometry" />
        </mxCell>
        <mxCell id="JrHW454MxP2I1iZ4IIzq-13" style="edgeStyle=orthogonalEdgeStyle;rounded=0;orthogonalLoop=1;jettySize=auto;html=1;entryX=0.5;entryY=0;entryDx=0;entryDy=0;" edge="1" parent="1" source="JrHW454MxP2I1iZ4IIzq-8" target="JrHW454MxP2I1iZ4IIzq-9">
          <mxGeometry relative="1" as="geometry" />
        </mxCell>
        <mxCell id="JrHW454MxP2I1iZ4IIzq-18" style="edgeStyle=orthogonalEdgeStyle;rounded=0;orthogonalLoop=1;jettySize=auto;html=1;" edge="1" parent="1" source="JrHW454MxP2I1iZ4IIzq-8" target="JrHW454MxP2I1iZ4IIzq-4">
          <mxGeometry relative="1" as="geometry" />
        </mxCell>
        <mxCell id="JrHW454MxP2I1iZ4IIzq-8" value="Lampe&#xa; branchée ? " style="rhombus;" vertex="1" parent="1">
          <mxGeometry x="55" y="322.5" width="70" height="75" as="geometry" />
        </mxCell>
        <mxCell id="JrHW454MxP2I1iZ4IIzq-14" style="edgeStyle=orthogonalEdgeStyle;rounded=0;orthogonalLoop=1;jettySize=auto;html=1;exitX=0.5;exitY=1;exitDx=0;exitDy=0;entryX=0.5;entryY=0;entryDx=0;entryDy=0;" edge="1" parent="1" source="JrHW454MxP2I1iZ4IIzq-9" target="JrHW454MxP2I1iZ4IIzq-7">
          <mxGeometry relative="1" as="geometry">
            <mxPoint x="90" y="550" as="targetPoint" />
          </mxGeometry>
        </mxCell>
        <mxCell id="JrHW454MxP2I1iZ4IIzq-17" style="edgeStyle=orthogonalEdgeStyle;rounded=0;orthogonalLoop=1;jettySize=auto;html=1;" edge="1" parent="1" source="JrHW454MxP2I1iZ4IIzq-9" target="JrHW454MxP2I1iZ4IIzq-5">
          <mxGeometry relative="1" as="geometry" />
        </mxCell>
        <mxCell id="JrHW454MxP2I1iZ4IIzq-9" value="Ampoule&#xa; cassée ? " style="rhombus;" vertex="1" parent="1">
          <mxGeometry x="50" y="457.5" width="80" height="85" as="geometry" />
        </mxCell>
        <mxCell id="JrHW454MxP2I1iZ4IIzq-15" style="edgeStyle=orthogonalEdgeStyle;rounded=0;orthogonalLoop=1;jettySize=auto;html=1;exitX=0.5;exitY=1;exitDx=0;exitDy=0;entryX=0.667;entryY=0.667;entryDx=0;entryDy=0;entryPerimeter=0;" edge="1" parent="1" source="JrHW454MxP2I1iZ4IIzq-7" target="JrHW454MxP2I1iZ4IIzq-2">
          <mxGeometry relative="1" as="geometry" />
        </mxCell>
        <mxCell id="JrHW454MxP2I1iZ4IIzq-21" style="edgeStyle=orthogonalEdgeStyle;rounded=0;orthogonalLoop=1;jettySize=auto;html=1;" edge="1" parent="1" source="JrHW454MxP2I1iZ4IIzq-19" target="JrHW454MxP2I1iZ4IIzq-20">
          <mxGeometry relative="1" as="geometry" />
        </mxCell>
        <mxCell id="JrHW454MxP2I1iZ4IIzq-19" value="" style="ellipse;fillColor=strokeColor;html=1;" vertex="1" parent="1">
          <mxGeometry x="75" y="790" width="30" height="30" as="geometry" />
        </mxCell>
        <mxCell id="JrHW454MxP2I1iZ4IIzq-22" style="edgeStyle=orthogonalEdgeStyle;rounded=0;orthogonalLoop=1;jettySize=auto;html=1;entryX=0;entryY=0.75;entryDx=0;entryDy=0;exitX=0.5;exitY=1;exitDx=0;exitDy=0;" edge="1" parent="1" source="JrHW454MxP2I1iZ4IIzq-20" target="JrHW454MxP2I1iZ4IIzq-20">
          <mxGeometry relative="1" as="geometry">
            <mxPoint x="170" y="830" as="targetPoint" />
            <Array as="points">
              <mxPoint x="230" y="845" />
              <mxPoint x="130" y="845" />
              <mxPoint x="130" y="815" />
            </Array>
          </mxGeometry>
        </mxCell>
        <mxCell id="JrHW454MxP2I1iZ4IIzq-20" value="Remplir formulaire" style="html=1;align=center;verticalAlign=top;rounded=1;absoluteArcSize=1;arcSize=10;dashed=0;whiteSpace=wrap;" vertex="1" parent="1">
          <mxGeometry x="160" y="785" width="140" height="40" as="geometry" />
        </mxCell>
      </root>
    </mxGraphModel>
  </diagram>
</mxfile>
